<?xml version="1.0" standalone="no"?>
<!DOCTYPE svg PUBLIC "-//W3C//DTD SVG 20010904//EN"
 "http://www.w3.org/TR/2001/REC-SVG-20010904/DTD/svg10.dtd">
<svg version="1.0" xmlns="http://www.w3.org/2000/svg"
 width="677.000000pt" height="677.000000pt" viewBox="0 0 677.000000 677.000000"
 preserveAspectRatio="xMidYMid meet">
<metadata>
Created by potrace 1.11, written by Peter Selinger 2001-2013
</metadata>
<g transform="translate(0.000000,677.000000) scale(0.100000,-0.100000)"
fill="#000000" stroke="none">
<path d="M3070 6749 c-829 -77 -1623 -471 -2182 -1084 -432 -473 -720 -1049
-832 -1665 -42 -232 -51 -340 -50 -620 0 -283 12 -405 60 -653 174 -894 738
-1706 1525 -2197 145 -91 438 -237 594 -295 231 -87 499 -155 765 -192 179
-25 694 -25 865 0 244 36 416 75 612 138 1019 331 1829 1132 2167 2143 117
349 169 677 169 1066 0 231 -9 341 -44 560 -92 575 -356 1145 -747 1610 -109
130 -344 358 -477 464 -522 414 -1153 666 -1815 726 -135 12 -474 11 -610 -1z
m733 -25 c973 -119 1855 -667 2393 -1484 284 -431 456 -891 530 -1412 21 -153
30 -563 15 -725 -74 -803 -407 -1518 -971 -2083 -537 -538 -1208 -868 -1964
-965 -156 -20 -416 -31 -416 -18 0 6 65 12 163 16 658 26 1314 266 1862 681
320 243 672 637 831 932 20 38 47 79 60 90 47 45 183 342 257 566 48 141 105
366 106 408 0 14 9 84 20 155 60 374 49 791 -29 1175 -92 451 -299 920 -568
1289 -483 662 -1177 1121 -1962 1299 -217 49 -477 82 -652 82 -60 0 -88 4 -88
12 0 14 236 4 413 -18z m-293 -1019 c108 -25 225 -82 292 -144 66 -60 108
-138 136 -249 l19 -73 104 -50 c246 -119 426 -279 580 -514 107 -163 106 -177
-1 -24 -82 118 -232 275 -335 352 -83 62 -229 140 -301 162 -37 11 -44 11 -48
-2 -15 -38 -5 -51 77 -93 91 -47 131 -76 52 -38 -56 27 -133 53 -139 47 -2 -2
-7 -18 -10 -35 -7 -31 -5 -33 71 -74 231 -127 376 -276 528 -545 40 -69 26
-54 -41 46 -120 180 -230 294 -372 387 -69 45 -209 109 -217 100 -2 -2 -10
-17 -19 -35 l-16 -32 85 -46 c87 -47 119 -73 43 -34 -23 12 -65 29 -93 39
l-51 17 -26 -37 -27 -37 49 -22 c175 -79 335 -234 449 -436 26 -46 13 -31 -67
79 -112 154 -250 261 -410 316 l-63 22 -67 -63 c-174 -163 -507 -328 -784
-388 -351 -76 -672 -31 -852 118 -68 58 -103 104 -150 201 -40 82 -41 88 -41
185 1 110 18 168 86 282 44 73 182 219 273 286 229 173 560 307 847 346 108
14 349 7 439 -14z m670 -721 c0 -2 -9 0 -20 6 -11 6 -20 13 -20 16 0 2 9 0 20
-6 11 -6 20 -13 20 -16z m1471 -416 c41 -35 42 -43 13 -135 -32 -105 -36 -216
-10 -308 9 -33 57 -143 106 -245 49 -102 99 -221 111 -265 12 -44 44 -138 70
-210 26 -71 59 -168 73 -215 32 -105 45 -124 103 -150 l46 -20 -25 -28 c-73
-77 -224 -374 -345 -677 -31 -77 -57 -142 -59 -144 -2 -2 -15 4 -30 14 -23 15
-26 22 -21 56 4 34 2 41 -23 59 -15 11 -39 20 -52 20 -43 0 -169 40 -246 79
-42 21 -100 46 -128 55 -28 9 -71 29 -96 45 -25 16 -56 32 -68 36 -13 4 -44
27 -69 50 -37 34 -55 43 -94 47 -102 11 -173 95 -164 192 2 28 6 57 8 65 3 9
-8 17 -28 23 -44 12 -96 66 -111 115 -16 55 -15 72 8 117 l19 39 -25 24 c-32
30 -64 99 -64 141 0 47 26 97 69 132 19 17 30 30 23 30 -20 0 -52 80 -52 130
0 57 25 99 85 140 76 52 123 63 244 57 78 -4 125 -12 176 -30 46 -17 103 -28
168 -32 l97 -7 0 28 c0 16 -9 72 -20 124 -22 99 -35 234 -33 333 2 106 103
260 203 310 41 20 120 22 141 5z m-1061 -238 c6 -11 8 -20 6 -20 -3 0 -10 9
-16 20 -6 11 -8 20 -6 20 3 0 10 -9 16 -20z m-2344 -1045 c45 -29 59 -64 59
-141 0 -82 -14 -110 -81 -156 -63 -44 -175 -96 -239 -112 -52 -13 -55 -14 -24
-15 20 -1 60 7 90 18 31 10 75 22 100 26 24 4 61 18 81 31 21 13 63 35 95 49
31 14 79 45 107 69 79 67 115 86 168 86 64 0 108 -36 108 -88 l1 -37 40 45
c23 25 52 66 65 92 32 63 79 115 125 139 106 54 204 -16 135 -98 -13 -15 -51
-83 -85 -151 -61 -121 -61 -123 -32 -108 16 9 69 59 118 112 114 124 182 159
258 134 36 -12 75 -56 75 -85 0 -9 -26 -42 -57 -73 l-57 -56 31 -13 c68 -27
84 -96 31 -133 -18 -13 -64 -59 -103 -103 -80 -91 -126 -131 -318 -272 -208
-153 -206 -152 -347 -110 -114 34 -142 29 -360 -65 -94 -41 -174 -45 -270 -13
-100 34 -409 93 -487 93 -79 0 -180 -24 -269 -64 l-61 -27 13 -55 c12 -53 12
-55 -12 -71 -14 -8 -26 -14 -27 -12 -1 2 -27 65 -56 139 -115 289 -277 602
-335 648 l-25 19 44 21 c37 18 45 19 55 7 10 -12 19 -10 58 11 122 64 364 174
417 190 52 14 85 16 245 10 208 -8 190 -11 410 77 166 67 260 79 316 42z"/>
<path d="M3170 5508 c0 -19 2 -20 10 -8 13 19 13 30 0 30 -5 0 -10 -10 -10
-22z"/>
<path d="M3363 5515 c-9 -25 4 -29 17 -6 7 15 7 21 0 21 -6 0 -13 -7 -17 -15z"/>
<path d="M2910 5480 c0 -5 5 -10 11 -10 5 0 7 5 4 10 -3 6 -8 10 -11 10 -2 0
-4 -4 -4 -10z"/>
<path d="M2712 5370 c0 -14 2 -19 5 -12 2 6 2 18 0 25 -3 6 -5 1 -5 -13z"/>
<path d="M2696 5323 c-6 -14 -5 -15 5 -6 7 7 10 15 7 18 -3 3 -9 -2 -12 -12z"/>
<path d="M2712 5190 c0 -14 2 -19 5 -12 2 6 2 18 0 25 -3 6 -5 1 -5 -13z"/>
<path d="M2432 5085 c0 -79 1 -85 9 -45 5 26 5 65 0 90 -8 39 -9 34 -9 -45z"/>
<path d="M2580 5119 c0 -5 5 -7 10 -4 6 3 10 8 10 11 0 2 -4 4 -10 4 -5 0 -10
-5 -10 -11z"/>
<path d="M3211 4945 c1 -48 1 -49 10 -17 6 21 6 39 0 50 -8 13 -10 5 -10 -33z"/>
<path d="M3072 4930 c0 -14 2 -19 5 -12 2 6 2 18 0 25 -3 6 -5 1 -5 -13z"/>
<path d="M2905 4860 c-3 -6 1 -7 9 -4 18 7 21 14 7 14 -6 0 -13 -4 -16 -10z"/>
<path d="M2644 2982 c-97 -65 -207 -157 -191 -160 27 -5 69 23 156 107 46 45
82 81 80 81 -2 0 -22 -12 -45 -28z"/>
</g>
</svg>
